<?xml version="1.0" encoding="utf-8"?>
<!-- Generator: Adobe Illustrator 17.1.0, SVG Export Plug-In . SVG Version: 6.00 Build 0)  -->
<!DOCTYPE svg PUBLIC "-//W3C//DTD SVG 1.1//EN" "http://www.w3.org/Graphics/SVG/1.1/DTD/svg11.dtd">
<svg version="1.1" id="Layer_1" xmlns="http://www.w3.org/2000/svg" xmlns:xlink="http://www.w3.org/1999/xlink" x="0px" y="0px"
	 viewBox="0 0 475.3 259" enable-background="new 0 0 475.3 259" xml:space="preserve">
<g>
	<g>
		<g>
			<g>
				<path d="M65,187.7V98.3l-39.2,22.7V80.5l105.2-61v41.3l-30.2,17.3v89.2L65,187.7z M74.7,81.7v89.7l16.5-9.5v-89l30.2-17.3V35.7
					L35.1,86.1v18.7L74.7,81.7z"/>
			</g>
			<g>
				<path d="M253,187.3l-77.8-44.6v44.6l-35.8-20.5V56.6l57.7-33.2l57.2,33.2v65.3L232.6,135l20.3,11.4V187.3z M148.8,161.1
					l16.7,9.4v-44.6l77.6,44.6v-17.8l-29.4-17.3l30.9-19.2V61.9l-47.6-27.4l-48.2,27.4V161.1z M197.1,124.8l-31.6-17.6V71.5
					l31.6-17.6l30.9,17.6v35.7L197.1,124.8z M200.9,91v21.1l17.8-10.1V81.8L200.9,91z M175,102l17.8,10.1V91L175,81.8V102z
					 M179.1,74.1l17.7,9.4l17.6-9.5L197,64.2L179.1,74.1z"/>
			</g>
			<g>
				<path d="M413.9,186v-42.8l-21.4,11.7l-27-15.4l-27,15.3l-22.8-11.8V186L279,164.8V55l59.5-33.6l27,15.4l27-15.4L450.1,55v109.7
					L413.9,186z M392.5,52.1l30.9,18.6v98.6l17.6-9.9v-99l-48.4-27.9l-27,15.4l-27-15.4l-50,27.9v98.5l17.8,9.9V70.6l32.2-18.5
					l27,15.6L392.5,52.1z M315.7,132.7l18.9,9.9V90.8l-18.9-9.7V132.7z M396.5,90.8v51.7l17.3-9.7V81.3L396.5,90.8z M342.5,90.7
					v51.6l18.9-10.9V80.2L342.5,90.7z M369.5,131.5l18.9,10.9V90.7l-18.9-10.5V131.5z M319.9,73.4l18.4,9.5l18.2-10.3l-18.1-10.2
					L319.9,73.4z M374.5,72.6l18,10.2l17.6-9.7l-17.6-10.7L374.5,72.6z"/>
			</g>
		</g>
	</g>
	<g>
		<g>
			<path d="M83.1,218.7h-4.7v-2.2h12.1v2.2h-4.7v15.8h-2.6V218.7z"/>
		</g>
		<g>
			<path d="M95.9,214.6c1,0,1.7,0.7,1.7,1.7c0,0.9-0.7,1.7-1.7,1.7c-0.9,0-1.7-0.7-1.7-1.7C94.2,215.3,95,214.6,95.9,214.6z
				 M94.7,220.3h2.6v14.2h-2.6V220.3z"/>
		</g>
		<g>
			<path d="M117.6,220c2.8,0,4.4,1.6,4.4,4.7v9.8h-2.6v-9.3c0-2-1-3-2.5-3c-1.5,0-2.6,1.1-3,2.1v10.1h-2.6v-9.1
				c0-2.1-0.9-3.2-2.6-3.2c-1.5,0-2.6,1.1-2.9,2.3v10h-2.6v-14.2h2l0.5,1.4h0.1c0.5-0.7,1.7-1.8,3.7-1.8c2.1,0,3.2,1,3.7,2.2h0.1
				C114,221.1,115.4,220,117.6,220z"/>
		</g>
		<g>
			<path d="M137.8,233.3c-1,0.8-2.5,1.4-4.7,1.4c-4.2,0-6.4-2.2-6.4-7.4c0-5,2.8-7.3,6.2-7.3c3.4,0,5.3,2.2,5.3,5.6
				c0,0.7,0,1.5-0.1,2.5h-8.9c0.2,3.1,1.5,4.4,4.2,4.4c1.4,0,2.7-0.6,3.3-1.2L137.8,233.3z M129.3,226.2h6.5c0-0.4,0-0.6,0-0.8
				c0-2.1-1-3.3-3-3.3C131,222.1,129.4,223.3,129.3,226.2z"/>
		</g>
		<g>
			<path d="M149.1,226.8c-0.6-0.6-1.3-1.7-1.3-3.1c0-1.9,1.5-3.5,3.8-3.5c2.3,0,3.7,1.5,3.7,3.5c0,1.6-0.9,3.1-3.3,3.8
				c0.9,1,1.9,1.9,3.3,3.2c0.7-1,1-2.4,1-3.7h1.8c0,1.5-0.5,3.4-1.5,4.8c0.9,0.8,2.1,1.7,3,2.4v0.3h-2.5c-0.5-0.3-1.1-0.8-1.7-1.3
				c-1,0.9-2.5,1.7-4.8,1.7c-3.5,0-4.9-2.1-4.9-4C145.7,228.6,147.1,227.5,149.1,226.8z M154.1,232c-1.6-1.4-2.9-2.7-4-3.9
				c-1.6,0.4-2.5,1.2-2.5,2.5c0,1.3,1.1,2.5,3.2,2.5C152.3,233.2,153.4,232.7,154.1,232z M150.9,226.3c2-0.6,2.5-1.4,2.5-2.5
				c0-1-0.7-1.9-1.9-1.9c-1.1,0-1.9,0.7-1.9,1.9C149.7,224.9,150.4,225.9,150.9,226.3z"/>
		</g>
		<g>
			<path d="M171.5,216.4c3.8,0,6.1,1.5,6.1,5.2c0,3-1.9,4.7-4,5v0.1c0.8,0.4,1.4,1,2.2,2.4l3.2,5.4h-3.1l-3.2-5.8
				c-0.6-1-1.3-1.5-2.5-1.5h-1.1v7.3h-2.6v-18.1H171.5z M169.1,225.1h2.1c2.4,0,3.7-1,3.7-3.3c0-2.3-1.3-3.1-3.8-3.1h-2V225.1z"/>
		</g>
		<g>
			<path d="M192.8,224.5v6.2c0,1.1,0.4,1.8,1.3,1.8h0.4v1.8c-0.3,0.2-0.7,0.3-1.1,0.3c-1.4,0-2.2-0.7-2.6-1.7h-0.1
				c-0.6,0.8-1.8,1.8-4.1,1.8c-2.7,0-4.1-1.9-4.1-3.8c0-3.2,3-4.7,7.9-4.6V225c0-2.1-1-2.7-2.7-2.7c-1.7,0-2.6,1-3,1.7l-1.8-1.4
				c0.5-0.7,1.9-2.4,4.9-2.4C190.9,220.1,192.8,221.4,192.8,224.5z M190.4,228.3c-3.1-0.2-5.4,0.6-5.4,2.5c0,1.1,0.8,2,2.2,2
				c1.4,0,2.6-0.8,3.1-1.7V228.3z"/>
		</g>
		<g>
			<path d="M204.3,220c2.3,0,3.7,0.9,4.3,1.7l-1.7,1.8c-0.5-0.5-1.3-1.2-2.7-1.2c-2.1,0-3.5,1.4-3.5,5.1s1.3,5.2,3.5,5.2
				c1.3,0,2.1-0.6,2.7-1.2l1.6,1.7c-0.6,0.8-1.9,1.7-4.5,1.7c-3.6,0-5.9-2-5.9-7.1C198.1,222.4,200.7,220,204.3,220z"/>
		</g>
		<g>
			<path d="M214.5,214.6c1,0,1.7,0.7,1.7,1.7c0,0.9-0.7,1.7-1.7,1.7c-0.9,0-1.7-0.7-1.7-1.7C212.8,215.3,213.6,214.6,214.5,214.6z
				 M213.3,220.3h2.6v14.2h-2.6V220.3z"/>
		</g>
		<g>
			<path d="M233,234.5h-2.6v-9.2c0-1.9-1-3-2.7-3c-1.6,0-2.8,1-3.3,2.3v10h-2.6v-14.2h2l0.5,1.4h0.1c0.5-0.7,2-1.8,4-1.8
				c2.8,0,4.5,1.5,4.5,4.7V234.5z"/>
		</g>
		<g>
			<path d="M249.1,234.4c0,3.8-2.4,5.6-6,5.6c-2.9,0-4.3-1-5-1.6l1.5-2c0.7,0.8,1.9,1.4,3.7,1.4c2.4,0,3.4-1.1,3.4-3.5v-1.1h-0.1
				c-0.5,0.4-1.6,1-3.3,1c-2.9,0-5.5-1.7-5.5-6.6c0-4.4,2.2-7.5,6.9-7.5c2,0,3.4,0.3,4.4,0.8V234.4z M244.5,222.3
				c-2.5,0-4.1,1.7-4.1,5.1c0,3.7,1.6,4.7,3.5,4.7c1.1,0,2.1-0.4,2.7-1.2v-8.3C246,222.4,245.3,222.3,244.5,222.3z"/>
		</g>
		<g>
			<path d="M271.4,228.4l4.7-12h4.1v18.1h-2.5v-15h-0.1c-1.6,4.2-3.3,8.4-5,12.5H270l-4.9-12.5h-0.2v15h-2.5v-18.1h4.1l4.7,12H271.4
				z"/>
		</g>
		<g>
			<path d="M295.5,224.5v6.2c0,1.1,0.4,1.8,1.3,1.8h0.4v1.8c-0.3,0.2-0.7,0.3-1.1,0.3c-1.4,0-2.2-0.7-2.6-1.7h-0.1
				c-0.6,0.8-1.8,1.8-4.1,1.8c-2.7,0-4.1-1.9-4.1-3.8c0-3.2,3-4.7,7.9-4.6V225c0-2.1-1-2.7-2.7-2.7c-1.7,0-2.6,1-3,1.7l-1.8-1.4
				c0.5-0.7,1.9-2.4,4.9-2.4C293.7,220.1,295.5,221.4,295.5,224.5z M293.1,228.3c-3.1-0.2-5.4,0.6-5.4,2.5c0,1.1,0.8,2,2.2,2
				c1.4,0,2.6-0.8,3.1-1.7V228.3z"/>
		</g>
		<g>
			<path d="M312.7,234.5h-2.6v-9.2c0-1.9-1-3-2.7-3c-1.6,0-2.8,1-3.3,2.3v10h-2.6v-14.2h2l0.5,1.4h0.1c0.5-0.7,2-1.8,4-1.8
				c2.8,0,4.5,1.5,4.5,4.7V234.5z"/>
		</g>
		<g>
			<path d="M327.8,224.5v6.2c0,1.1,0.4,1.8,1.3,1.8h0.4v1.8c-0.3,0.2-0.7,0.3-1.1,0.3c-1.4,0-2.2-0.7-2.6-1.7h-0.1
				c-0.6,0.8-1.8,1.8-4.1,1.8c-2.7,0-4.1-1.9-4.1-3.8c0-3.2,3-4.7,7.9-4.6V225c0-2.1-1-2.7-2.7-2.7c-1.7,0-2.6,1-3,1.7l-1.8-1.4
				c0.5-0.7,1.9-2.4,4.9-2.4C325.9,220.1,327.8,221.4,327.8,224.5z M325.4,228.3c-3.1-0.2-5.4,0.6-5.4,2.5c0,1.1,0.8,2,2.2,2
				c1.4,0,2.6-0.8,3.1-1.7V228.3z"/>
		</g>
		<g>
			<path d="M344.5,234.4c0,3.8-2.4,5.6-6,5.6c-2.9,0-4.3-1-5-1.6l1.5-2c0.7,0.8,1.9,1.4,3.7,1.4c2.4,0,3.4-1.1,3.4-3.5v-1.1h-0.1
				c-0.5,0.4-1.6,1-3.3,1c-2.9,0-5.5-1.7-5.5-6.6c0-4.4,2.2-7.5,6.9-7.5c2,0,3.4,0.3,4.4,0.8V234.4z M339.9,222.3
				c-2.5,0-4.1,1.7-4.1,5.1c0,3.7,1.6,4.7,3.5,4.7c1.1,0,2.1-0.4,2.7-1.2v-8.3C341.4,222.4,340.7,222.3,339.9,222.3z"/>
		</g>
		<g>
			<path d="M360.4,233.3c-1,0.8-2.5,1.4-4.7,1.4c-4.2,0-6.4-2.2-6.4-7.4c0-5,2.8-7.3,6.2-7.3c3.4,0,5.3,2.2,5.3,5.6
				c0,0.7,0,1.5-0.1,2.5h-8.9c0.2,3.1,1.5,4.4,4.2,4.4c1.4,0,2.7-0.6,3.3-1.2L360.4,233.3z M351.9,226.2h6.5c0-0.4,0-0.6,0-0.8
				c0-2.1-1-3.3-3-3.3C353.6,222.1,352,223.3,351.9,226.2z"/>
		</g>
		<g>
			<path d="M380.1,220c2.8,0,4.4,1.6,4.4,4.7v9.8H382v-9.3c0-2-1-3-2.5-3c-1.5,0-2.6,1.1-3,2.1v10.1h-2.6v-9.1
				c0-2.1-0.9-3.2-2.6-3.2c-1.5,0-2.6,1.1-2.9,2.3v10h-2.6v-14.2h2l0.5,1.4h0.1c0.5-0.7,1.7-1.8,3.7-1.8c2.1,0,3.2,1,3.7,2.2h0.1
				C376.6,221.1,378,220,380.1,220z"/>
		</g>
		<g>
			<path d="M400.4,233.3c-1,0.8-2.5,1.4-4.7,1.4c-4.2,0-6.4-2.2-6.4-7.4c0-5,2.8-7.3,6.2-7.3c3.4,0,5.3,2.2,5.3,5.6
				c0,0.7,0,1.5-0.1,2.5h-8.9c0.2,3.1,1.5,4.4,4.2,4.4c1.4,0,2.7-0.6,3.3-1.2L400.4,233.3z M391.9,226.2h6.5c0-0.4,0-0.6,0-0.8
				c0-2.1-1-3.3-3-3.3C393.5,222.1,392,223.3,391.9,226.2z"/>
		</g>
		<g>
			<path d="M416.9,234.5h-2.6v-9.2c0-1.9-1-3-2.7-3c-1.6,0-2.8,1-3.3,2.3v10h-2.6v-14.2h2l0.5,1.4h0.1c0.5-0.7,2-1.8,4-1.8
				c2.8,0,4.5,1.5,4.5,4.7V234.5z"/>
		</g>
		<g>
			<path d="M422.9,230.5v-8.2h-2v-1.6l2-0.5l0.8-3.6h1.7v3.7h3.8v2h-3.8v8.1c0,1.4,0.7,2,1.9,2c1,0,1.7-0.2,2.1-0.5l0.7,2
				c-0.5,0.3-1.5,0.7-3.4,0.7C424.3,234.6,422.9,233.4,422.9,230.5z"/>
		</g>
	</g>
</g>
</svg>
