<?xml version="1.0" encoding="utf-8"?>
<!-- Generator: Adobe Illustrator 17.1.0, SVG Export Plug-In . SVG Version: 6.00 Build 0)  -->
<!DOCTYPE svg PUBLIC "-//W3C//DTD SVG 1.1//EN" "http://www.w3.org/Graphics/SVG/1.1/DTD/svg11.dtd">
<svg version="1.1" id="Layer_1" xmlns="http://www.w3.org/2000/svg" xmlns:xlink="http://www.w3.org/1999/xlink" x="0px" y="0px"
	 viewBox="0 0 285.7 157.7" enable-background="new 0 0 285.7 157.7" xml:space="preserve">
<g>
	<g>
		<g>
			<g>
				<path d="M32.7,119.9V63.4L7.9,77.7V52.1l66.6-38.6v26.2l-19.1,11v56.5L32.7,119.9z M38.8,52.9v56.7l10.4-6V47.2l19.1-11V23.8
					L13.8,55.7v11.8L38.8,52.9z"/>
			</g>
			<g>
				<path d="M151.7,119.7l-49.2-28.2v28.2l-22.7-13V37l36.5-21l36.2,21v41.3l-13.7,8.3l12.9,7.2V119.7z M85.8,103.1l10.6,6V80.8
					l49.1,28.2V97.8l-18.6-11l19.6-12.1V40.4L116.3,23L85.8,40.4V103.1z M116.3,80.2L96.3,69V46.4l20-11.1l19.5,11.1V69L116.3,80.2z
					 M118.7,58.8v13.3l11.3-6.4V52.9L118.7,58.8z M102.3,65.7l11.2,6.4V58.8l-11.2-5.8V65.7z M104.9,48.1l11.2,6l11.1-6l-11-6.3
					L104.9,48.1z"/>
			</g>
			<g>
				<path d="M253.5,118.9V91.8l-13.6,7.4l-17.1-9.7l-17.1,9.7l-14.4-7.5v27.1l-23.2-13.4V36l37.6-21.3l17.1,9.7l17.1-9.7L276.5,36
					v69.4L253.5,118.9z M240,34.1l19.5,11.7v62.4l11.1-6.2V39.4L240,21.8l-17.1,9.7l-17.1-9.7l-31.6,17.7v62.3l11.2,6.3V45.9
					l20.4-11.7l17.1,9.9L240,34.1z M191.4,85.2l11.9,6.2V58.6l-11.9-6.1V85.2z M242.5,58.6v32.7l11-6.1V52.6L242.5,58.6z
					 M208.3,58.6v32.7l11.9-6.9V51.9L208.3,58.6z M225.4,84.4l11.9,6.9V58.6l-11.9-6.7V84.4z M194.1,47.6l11.7,6l11.5-6.5l-11.4-6.5
					L194.1,47.6z M228.6,47.2l11.4,6.5l11.1-6.1l-11.2-6.8L228.6,47.2z"/>
			</g>
		</g>
	</g>
	<g>
		<path d="M40.6,132.8h-3.2v11.1h-1.7v-11.1h-3.2v-1.3h8.1V132.8z"/>
		<path d="M44.3,138.5v5.4h-1.7v-12.4h3.9c1.2,0,2.1,0.3,2.7,0.9s1,1.5,1,2.6c0,0.6-0.1,1.2-0.4,1.7c-0.3,0.5-0.7,0.9-1.3,1.1
			c0.6,0.2,1.1,0.6,1.3,1.1c0.3,0.5,0.4,1.1,0.4,1.9v1.1c0,0.4,0,0.7,0.1,1.1c0.1,0.3,0.2,0.6,0.4,0.8v0.2h-1.8
			c-0.2-0.2-0.3-0.5-0.4-0.9c-0.1-0.4-0.1-0.8-0.1-1.2v-1.1c0-0.7-0.2-1.2-0.5-1.6c-0.3-0.4-0.7-0.6-1.3-0.6H44.3z M44.3,137.2h2
			c0.7,0,1.2-0.2,1.5-0.6c0.3-0.4,0.5-0.9,0.5-1.6c0-0.7-0.2-1.3-0.5-1.7s-0.8-0.6-1.5-0.6h-2.1V137.2z"/>
		<path d="M58.6,140.8h-4l-0.9,3.1H52l3.8-12.4h1.7l3.8,12.4h-1.8L58.6,140.8z M55.1,139.4h3.2l-1.6-5.4h-0.1L55.1,139.4z"/>
		<path d="M70.4,140.1L70.4,140.1c0,1.3-0.3,2.3-1,2.9s-1.6,1-2.8,1c-1.2,0-2.2-0.4-2.9-1.2c-0.7-0.8-1.1-2-1.1-3.4V136
			c0-1.5,0.4-2.6,1.1-3.4s1.7-1.2,2.9-1.2c1.2,0,2.2,0.3,2.8,1s1,1.6,1,2.9l0,0.1h-1.6c0-0.9-0.2-1.6-0.5-2s-0.9-0.6-1.6-0.6
			c-0.7,0-1.3,0.3-1.7,0.9c-0.4,0.6-0.6,1.4-0.6,2.5v3.5c0,1.1,0.2,1.9,0.6,2.5c0.4,0.6,1,0.9,1.7,0.9c0.7,0,1.2-0.2,1.6-0.6
			c0.3-0.4,0.5-1.1,0.5-2H70.4z"/>
		<path d="M75.7,138.3h-1.2v5.6h-1.7v-12.4h1.7v5.5h1l3.3-5.5h2.1l-3.9,5.9l4.2,6.5h-2.1L75.7,138.3z"/>
		<path d="M84.8,143.9h-1.7v-12.4h1.7V143.9z"/>
		<path d="M96,143.9h-1.7l-4.7-9.2l-0.1,0v9.2h-1.7v-12.4h1.7l4.7,9.2l0.1,0v-9.2H96V143.9z"/>
		<path d="M106.8,142.1c-0.3,0.5-0.7,1-1.4,1.3s-1.5,0.6-2.5,0.6c-1.3,0-2.4-0.4-3.1-1.2c-0.8-0.8-1.2-1.9-1.2-3.4v-3.7
			c0-1.4,0.4-2.6,1.1-3.3c0.8-0.8,1.8-1.2,3-1.2c1.3,0,2.2,0.3,2.9,1c0.7,0.6,1,1.5,1.1,2.7l0,0.1h-1.6c0-0.8-0.2-1.4-0.6-1.8
			c-0.4-0.4-0.9-0.6-1.7-0.6c-0.8,0-1.4,0.3-1.8,0.8c-0.4,0.5-0.7,1.3-0.7,2.4v3.7c0,1.1,0.2,1.9,0.7,2.4c0.5,0.6,1.1,0.8,1.9,0.8
			c0.6,0,1.1-0.1,1.4-0.3c0.3-0.2,0.6-0.5,0.7-0.8v-2.8H103v-1.3h3.9V142.1z"/>
		<path d="M113.3,140.6c0-0.7,0.2-1.3,0.5-1.8c0.4-0.5,0.9-1.1,1.6-1.6c-0.4-0.6-0.7-1.1-0.9-1.5c-0.2-0.5-0.3-0.9-0.3-1.4
			c0-0.9,0.3-1.7,0.8-2.2s1.2-0.8,2.1-0.8c0.8,0,1.4,0.3,1.9,0.8c0.5,0.5,0.7,1.1,0.7,1.9c0,0.5-0.1,1-0.4,1.4
			c-0.3,0.4-0.6,0.8-1.1,1.2l-0.9,0.7l2.5,3.4l0.1,0c0.2-0.3,0.3-0.7,0.4-1.1s0.1-0.9,0.1-1.3h1.4c0,0.7-0.1,1.4-0.3,2
			s-0.5,1.2-0.8,1.7l1.5,2h-2l-0.7-0.9c-0.4,0.3-0.9,0.6-1.3,0.8c-0.5,0.2-1,0.3-1.5,0.3c-1.1,0-2-0.3-2.6-1
			S113.3,141.7,113.3,140.6z M117,142.8c0.4,0,0.7-0.1,1-0.2s0.7-0.3,1-0.6l-2.7-3.7l-0.2,0.2c-0.4,0.4-0.6,0.8-0.8,1.1
			c-0.1,0.4-0.2,0.7-0.2,1c0,0.6,0.2,1.1,0.5,1.6S116.4,142.8,117,142.8z M116,134.3c0,0.3,0.1,0.6,0.2,0.9s0.3,0.7,0.6,1l0.9-0.7
			c0.3-0.2,0.5-0.5,0.6-0.7c0.1-0.3,0.2-0.5,0.2-0.8c0-0.4-0.1-0.7-0.3-0.9s-0.5-0.4-0.9-0.4c-0.4,0-0.7,0.2-0.9,0.5
			C116.1,133.4,116,133.8,116,134.3z"/>
		<path d="M130.5,138.5v5.4h-1.7v-12.4h3.9c1.2,0,2.1,0.3,2.7,0.9s1,1.5,1,2.6c0,0.6-0.1,1.2-0.4,1.7c-0.3,0.5-0.7,0.9-1.3,1.1
			c0.6,0.2,1.1,0.6,1.3,1.1c0.3,0.5,0.4,1.1,0.4,1.9v1.1c0,0.4,0,0.7,0.1,1.1c0.1,0.3,0.2,0.6,0.4,0.8v0.2h-1.8
			c-0.2-0.2-0.3-0.5-0.4-0.9c-0.1-0.4-0.1-0.8-0.1-1.2v-1.1c0-0.7-0.2-1.2-0.5-1.6c-0.3-0.4-0.7-0.6-1.3-0.6H130.5z M130.5,137.2h2
			c0.7,0,1.2-0.2,1.5-0.6c0.3-0.4,0.5-0.9,0.5-1.6c0-0.7-0.2-1.3-0.5-1.7s-0.8-0.6-1.5-0.6h-2.1V137.2z"/>
		<path d="M144.8,140.8h-4l-0.9,3.1h-1.8l3.8-12.4h1.7l3.8,12.4h-1.8L144.8,140.8z M141.3,139.4h3.2l-1.6-5.4h-0.1L141.3,139.4z"/>
		<path d="M156.6,140.1L156.6,140.1c0,1.3-0.3,2.3-1,2.9s-1.6,1-2.8,1c-1.2,0-2.2-0.4-2.9-1.2c-0.7-0.8-1.1-2-1.1-3.4V136
			c0-1.5,0.4-2.6,1.1-3.4s1.7-1.2,2.9-1.2c1.2,0,2.2,0.3,2.8,1s1,1.6,1,2.9l0,0.1H155c0-0.9-0.2-1.6-0.5-2c-0.3-0.4-0.9-0.6-1.6-0.6
			c-0.7,0-1.3,0.3-1.7,0.9c-0.4,0.6-0.6,1.4-0.6,2.5v3.5c0,1.1,0.2,1.9,0.6,2.5c0.4,0.6,1,0.9,1.7,0.9c0.7,0,1.2-0.2,1.6-0.6
			c0.3-0.4,0.5-1.1,0.5-2H156.6z"/>
		<path d="M165.4,138.1h-4.6v4.5h5.3v1.3H159v-12.4h7v1.3h-5.3v4h4.6V138.1z"/>
		<path d="M174.7,131.5l2.9,10.1h0.1l2.9-10.1h2.2v12.4h-1.7v-4.8l0.2-4.8l-0.1,0l-3,9.6H177l-3-9.6l-0.1,0l0.2,4.8v4.8h-1.7v-12.4
			H174.7z"/>
		<path d="M191.4,140.8h-4l-0.9,3.1h-1.8l3.8-12.4h1.7l3.8,12.4h-1.8L191.4,140.8z M187.9,139.4h3.2l-1.6-5.4h-0.1L187.9,139.4z"/>
		<path d="M204.2,143.9h-1.7l-4.7-9.2l-0.1,0v9.2H196v-12.4h1.7l4.7,9.2l0.1,0v-9.2h1.7V143.9z"/>
		<path d="M212.9,140.8h-4l-0.9,3.1h-1.8l3.8-12.4h1.7l3.8,12.4h-1.8L212.9,140.8z M209.4,139.4h3.2L211,134h-0.1L209.4,139.4z"/>
		<path d="M225.2,142.1c-0.3,0.5-0.7,1-1.4,1.3c-0.6,0.4-1.5,0.6-2.5,0.6c-1.3,0-2.4-0.4-3.1-1.2c-0.8-0.8-1.2-1.9-1.2-3.4v-3.7
			c0-1.4,0.4-2.6,1.1-3.3c0.8-0.8,1.8-1.2,3-1.2c1.3,0,2.2,0.3,2.9,1c0.7,0.6,1,1.5,1.1,2.7l0,0.1h-1.6c0-0.8-0.2-1.4-0.6-1.8
			c-0.4-0.4-0.9-0.6-1.7-0.6c-0.8,0-1.4,0.3-1.8,0.8c-0.4,0.5-0.7,1.3-0.7,2.4v3.7c0,1.1,0.2,1.9,0.7,2.4c0.5,0.6,1.1,0.8,1.9,0.8
			c0.6,0,1.1-0.1,1.4-0.3c0.3-0.2,0.6-0.5,0.7-0.8v-2.8h-2.1v-1.3h3.9V142.1z"/>
		<path d="M234.4,138.1h-4.6v4.5h5.3v1.3h-7.1v-12.4h7v1.3h-5.3v4h4.6V138.1z"/>
		<path d="M239.4,131.5l2.9,10.1h0.1l2.9-10.1h2.2v12.4h-1.7v-4.8l0.2-4.8l-0.1,0l-3,9.6h-1.1l-3-9.6l-0.1,0l0.2,4.8v4.8h-1.7v-12.4
			H239.4z"/>
		<path d="M256.7,138.1h-4.6v4.5h5.3v1.3h-7.1v-12.4h7v1.3h-5.3v4h4.6V138.1z"/>
		<path d="M267.8,143.9h-1.7l-4.7-9.2l-0.1,0v9.2h-1.7v-12.4h1.7l4.7,9.2l0.1,0v-9.2h1.7V143.9z"/>
		<path d="M277.7,132.8h-3.2v11.1h-1.7v-11.1h-3.2v-1.3h8.1V132.8z"/>
	</g>
</g>
</svg>
